<svg id="Layer_1" data-name="Layer 1" xmlns="http://www.w3.org/2000/svg" viewBox="0 0 269 40"><defs><style>.cls-1{fill:#3b5998;}.cls-2{fill:#8b9dc3;}.cls-3{fill:#fff;}</style></defs><title>facebook</title><rect class="cls-1" width="269" height="40" rx="5" ry="5"/><rect class="cls-2" x="43" width="1" height="40"/><path id="f" class="cls-3" d="M39.22,164v-12.8h4.3l0.64-5H39.22v-3.18c0-1.44.4-2.43,2.47-2.43h2.64v-4.46a35.12,35.12,0,0,0-3.85-.2c-3.81,0-6.41,2.32-6.41,6.59v3.68H29.76v5h4.31V164h5.15Z" transform="translate(-15 -130)"/><path class="cls-3" d="M105.34,154V143.33h2.16v8.94h3.83V154h-6Z" transform="translate(-15 -130)"/><path class="cls-3" d="M115.51,145.75c2.49,0,3.18,1.44,3.18,4.25s-0.81,4.24-3.18,4.24-3.18-1.44-3.18-4.24S113.14,145.75,115.51,145.75Zm0,7.08c0.84,0,1.11-.82,1.11-2.83s-0.27-2.83-1.11-2.83c-1,0-1.11,1.19-1.11,2.83S114.49,152.83,115.51,152.83Z" transform="translate(-15 -130)"/><path class="cls-3" d="M126.22,146v7.67c0,2.13-.95,3.17-3.36,3.17-1.75,0-2.75-.78-2.75-2.16h2a0.72,0.72,0,0,0,.31.62,1.22,1.22,0,0,0,.69.22,1.19,1.19,0,0,0,1.14-1.46V153h0a2.18,2.18,0,0,1-1.72,1c-1.65,0-2.48-1.12-2.48-4.08,0-1.89.29-4.11,2.54-4.11a1.8,1.8,0,0,1,1.66,1.11h0V146h2Zm-3.1,6.39c0.87,0,1.13-.95,1.13-2.31,0-2-.25-2.7-1.08-2.7s-1.08.74-1.08,2.91C122.08,151.36,122.24,152.35,123.11,152.35Z" transform="translate(-15 -130)"/><path class="cls-3" d="M132.1,143.21h2.07V145H132.1v-1.77Zm0,2.76h2.07V154H132.1V146Z" transform="translate(-15 -130)"/><path class="cls-3" d="M136,146h2v0.95h0a2.21,2.21,0,0,1,2.06-1.16c1.29,0,2.05.71,2.05,2.29v6H140v-5.56c0-.81-0.27-1.12-0.88-1.12a1.09,1.09,0,0,0-1.1,1.33V154H136V146Z" transform="translate(-15 -130)"/><path class="cls-3" d="M147.26,146h2.07l0.95,5.73h0l1-5.73h2.25l1.07,5.73h0l1-5.73h2L155.87,154h-2.36l-1.06-5.73h0l-1,5.73H149Z" transform="translate(-15 -130)"/><path class="cls-3" d="M158.86,143.21h2.07V145h-2.07v-1.77Zm0,2.76h2.07V154h-2.07V146Z" transform="translate(-15 -130)"/><path class="cls-3" d="M163.21,143.66h2.07V146h1.2v1.41h-1.2v4.36c0,0.63.13,0.88,0.74,0.88a4.27,4.27,0,0,0,.46,0V154a13,13,0,0,1-1.35.09c-1.62,0-1.92-.49-1.92-2.13v-4.62h-1V146h1v-2.31Z" transform="translate(-15 -130)"/><path class="cls-3" d="M167.57,143.33h2.07v3.46h0a2.12,2.12,0,0,1,2-1c1.29,0,2.05.71,2.05,2.29v6h-2.07v-5.56c0-.81-0.27-1.12-0.89-1.12a1.09,1.09,0,0,0-1.09,1.33V154h-2.07V143.33Z" transform="translate(-15 -130)"/><path class="cls-3" d="M179.48,143.33h6v1.77h-3.82v2.52h3.6v1.77h-3.6V154h-2.16V143.33Z" transform="translate(-15 -130)"/><path class="cls-3" d="M186.42,148.44v-0.19c0-1.86,1.28-2.49,2.83-2.49,2.46,0,2.92,1,2.92,2.48v4.24a3.29,3.29,0,0,0,.25,1.56h-2a3.38,3.38,0,0,1-.25-0.84h0a2,2,0,0,1-2.05,1,2,2,0,0,1-2-2.31c0-1.51.62-2.13,2-2.52l1.17-.31a0.87,0.87,0,0,0,.83-0.95,0.86,0.86,0,0,0-1-1,0.92,0.92,0,0,0-1,1v0.23h-1.86Zm3.78,1.56a2.56,2.56,0,0,1-.88.4,1.22,1.22,0,0,0-1.17,1.31,0.92,0.92,0,0,0,.78,1.12,1.22,1.22,0,0,0,1.28-1.24V150Z" transform="translate(-15 -130)"/><path class="cls-3" d="M197.92,148.88c0-.78-0.15-1.62-0.93-1.62-1,0-1.18.9-1.18,2.76s0.18,2.82,1.11,2.82c0.69,0,1-.58,1-1.89h2c0,2.11-.88,3.3-3.08,3.3s-3.09-1-3.09-4.24,1.37-4.25,3.27-4.25,2.89,1.21,2.89,3.12h-2Z" transform="translate(-15 -130)"/><path class="cls-3" d="M203.12,150.31V151c0,0.94.25,1.87,1,1.87s1-.52,1.1-1.51h1.86c-0.08,1.88-1,2.92-2.92,2.92-3,0-3.12-2.31-3.12-4.32s0.42-4.17,3.21-4.17c2.42,0,3,1.62,3,4.09v0.47h-4.09Zm2.12-1.23c0-1.23-.2-1.92-1.05-1.92s-1.06.85-1.06,1.6v0.31h2.12Z" transform="translate(-15 -130)"/><path class="cls-3" d="M208.67,143.33h2.07v3.39h0a1.94,1.94,0,0,1,1.74-1c1.69,0,2.47,1.25,2.47,4.25s-0.78,4.24-2.47,4.24a2,2,0,0,1-1.83-1.06h0V154h-2V143.33Zm3.16,9.33c0.9,0,1.08-.9,1.08-2.65s-0.18-2.66-1.08-2.66-1.09.9-1.09,2.66S210.92,152.65,211.83,152.65Z" transform="translate(-15 -130)"/><path class="cls-3" d="M219.46,145.75c2.49,0,3.18,1.44,3.18,4.25s-0.81,4.24-3.18,4.24-3.18-1.44-3.18-4.24S217.08,145.75,219.46,145.75Zm0,7.08c0.84,0,1.11-.82,1.11-2.83s-0.27-2.83-1.11-2.83c-1,0-1.11,1.19-1.11,2.83S218.44,152.83,219.46,152.83Z" transform="translate(-15 -130)"/><path class="cls-3" d="M227,145.75c2.49,0,3.18,1.44,3.18,4.25s-0.81,4.24-3.18,4.24-3.18-1.44-3.18-4.24S224.66,145.75,227,145.75Zm0,7.08c0.84,0,1.11-.82,1.11-2.83s-0.27-2.83-1.11-2.83c-1,0-1.11,1.19-1.11,2.83S226,152.83,227,152.83Z" transform="translate(-15 -130)"/><path class="cls-3" d="M233.84,143.33V149h0l2.08-3h2.28l-2.32,3.18,2.67,4.89H236.3l-1.72-3.31-0.74,1V154h-2.07V143.33h2.07Z" transform="translate(-15 -130)"/></svg>