<svg id="Layer_1" data-name="Layer 1" xmlns="http://www.w3.org/2000/svg" viewBox="0 0 957.99 284.04"><defs><style>.cls-1{fill:#95a5a6;}.cls-2{fill:#ecf0f1;}.cls-3{fill:#bdc3c7;}.cls-4{fill:#007233;}.cls-5{fill:#009245;}.cls-6{fill:#333;}</style></defs><title>hero</title><path class="cls-1" d="M5,10.21V150c0,58.71,50.78,111.83,125.81,139.79,75-28,125.81-81.08,125.81-139.79V10.21H5Z" transform="translate(-5 -5.75)"/><path class="cls-2" d="M5,10.21V150c0,58.71,50.78,111.83,125.81,139.79,75-28,125.81-81.08,125.81-139.79V10.21H5Z" transform="translate(-5 -5.75)"/><path class="cls-3" d="M5,10.21V150c0,58.71,50.78,111.83,125.81,139.79V10.21H5Z" transform="translate(-5 -5.75)"/><path class="cls-4" d="M33,38.17V150c0,47.53,39.49,89.47,97.85,111.83,58.36-22.37,97.85-64.3,97.85-111.83V38.17H33Z" transform="translate(-5 -5.75)"/><path class="cls-5" d="M130.81,38.17V261.83c58.36-22.37,97.85-64.3,97.85-111.83V38.17H130.81Z" transform="translate(-5 -5.75)"/><path class="cls-4" d="M65.63,140.85l-0.06,27.74,56.78,0.55-0.43,55.79,27.74-.06,0.43-55.79,55.79-.43,0.06-27.74-55.79.43,0.43-55.79-29-.61,0.87,56.46Z" transform="translate(-5 -5.75)"/><path class="cls-2" d="M55.75,131l-0.06,27.74,56.78,0.55L112,215.05l27.74-.06,0.43-55.79,55.79-.43L196.05,131l-55.79.43,0.43-55.79-29-.61,0.87,56.46Z" transform="translate(-5 -5.75)"/><path class="cls-5" d="M288.91,11.74h79.77V34.31H317.27V56.45h44.59V78.31H317.27V120H288.91V11.74Z" transform="translate(-5 -5.75)"/><path class="cls-5" d="M381.76,11.74H410V120H381.76V11.74Z" transform="translate(-5 -5.75)"/><path class="cls-5" d="M429.59,11.74h55.24c19.11,0,37.93,8.66,37.93,30.51a27.92,27.92,0,0,1-17,27.16v0.32c11.53,2.75,14.88,15.64,16,26,0.32,4.55.76,20.5,4.55,24.45H498.35c-2.43-3.63-2.87-14.28-3.19-17.31-0.76-10.93-2.59-22.14-16-22.14H457.79v39.45h-28.2V11.74Zm28.24,47h23.65c8.5,0,13-4.55,13-12.76s-6.18-11.69-14.16-11.69H457.79V58.76h0Z" transform="translate(-5 -5.75)"/><path class="cls-5" d="M561.17,83.53c0.6,12.76,8.5,16.83,20.5,16.83,8.5,0,17.31-3,17.31-11.09,0-9.57-15.48-11.37-31.11-16S536,62,536,42.05C536,18.36,559.9,9.1,580.12,9.1c21.54,0,43.24,10.49,43.4,34.9h-28C596,34.47,586.66,31.28,578,31.28c-6.06,0-13.64,2.11-13.64,9.25,0,8.34,15.64,9.85,31.43,14.28s31.43,11.69,31.43,31.27c0,27.48-23.37,36.26-47.19,36.26-24.89,0-46.91-10.93-47-38.69h28.24Z" transform="translate(-5 -5.75)"/><path class="cls-6" d="M778,11.74h11.53L832,120.07H821l-13.2-33.7h-49.3l-13,33.7H734.32ZM761.64,77.55h42.64L783.5,22Z" transform="translate(-5 -5.75)"/><path class="cls-6" d="M842.69,11.74H853V120H842.69V11.74Z" transform="translate(-5 -5.75)"/><path class="cls-6" d="M875.64,11.74h37.49C945.72,12.45,963,30.36,963,65.86s-17.27,53.57-49.9,54.17H875.6V11.74h0ZM886,111.45h22c31.11,0,44.63-13,44.63-45.39s-13.56-45.71-44.67-45.59h-22v90.78Z" transform="translate(-5 -5.75)"/><polygon class="cls-5" points="736.62 43.88 696.73 43.88 696.73 0 668.81 0 668.81 43.88 628.93 43.88 628.93 75.78 668.81 75.78 668.81 115.67 696.73 115.67 696.73 75.78 736.62 75.78 736.62 43.88"/><path class="cls-6" d="M395.11,171.2h11.5v46.95h80.21V171.2h11.5v111h-11.5V228.71H406.61v53.48h-11.5v-111Z" transform="translate(-5 -5.75)"/><path class="cls-6" d="M520.71,171.2H609v10.57H532.21v37.62h74V230h-74v41.66h78v10.57H520.71v-111Z" transform="translate(-5 -5.75)"/><path class="cls-6" d="M627.19,171.2h60.47c18.81,0,36.06,6.68,36.06,30,0,11.81-7.31,23.63-21.76,26.89v0.31c15.7,2.49,19,12.59,19.74,30.78,0.31,7,1.24,20.52,3.89,23H713.16c-2-2.33-2.8-10.57-3-22.7-0.31-19.59-7.77-26.12-26.89-26.12H638.7v48.81h-11.5v-111Zm11.5,51.61h48.66c12.59,0,23.94-4.66,23.94-21.61,0-16.32-12.28-19.43-22.85-19.43H638.7v41Z" transform="translate(-5 -5.75)"/><path class="cls-6" d="M796.48,168.4c31.56,0,60.31,19.12,60.31,58.29S828,285,796.48,285s-60.32-19.12-60.32-58.29S764.92,168.4,796.48,168.4Zm0,106c24.41,0,47.88-14.3,47.88-47.72S820.89,179,796.48,179s-47.88,14.3-47.88,47.72S772.07,274.42,796.48,274.42Z" transform="translate(-5 -5.75)"/></svg>