<svg id="Layer_1" data-name="Layer 1" xmlns="http://www.w3.org/2000/svg" viewBox="0 0 168.94 44.71"><defs><style>.cls-1{fill:#009245;}.cls-2{fill:#333;}</style></defs><title>logo-tagline</title><path class="cls-1" d="M2.53,3.49h20V9.16H9.61v5.55H20.79v5.48H9.61V30.65H2.53V3.49Z" transform="translate(-2.53 -2)"/><path class="cls-1" d="M25.78,3.49h7.08V30.65H25.78V3.49Z" transform="translate(-2.53 -2)"/><path class="cls-1" d="M37.77,3.49H51.62c4.79,0,9.51,2.17,9.51,7.65a7,7,0,0,1-4.26,6.81V18c2.89,0.69,3.73,3.92,4,6.51,0.08,1.14.19,5.14,1.14,6.13H55c-0.61-.91-0.72-3.58-0.8-4.34-0.19-2.74-.65-5.55-4-5.55H44.84v9.89H37.77V3.49Zm7.08,11.79h5.93c2.13,0,3.27-1.14,3.27-3.2s-1.6-2.93-3.58-2.93H44.84v6.13Z" transform="translate(-2.53 -2)"/><path class="cls-1" d="M70.76,21.52c0.15,3.2,2.13,4.22,5.14,4.22,2.13,0,4.34-.76,4.34-2.78,0-2.4-3.88-2.85-7.8-4s-8-2.85-8-7.84c0-5.94,6-8.26,11.07-8.26,5.4,0,10.84,2.63,10.88,8.75H79.36C79.47,9.2,77.15,8.4,75,8.4c-1.52,0-3.42.53-3.42,2.32,0,2.09,3.92,2.47,7.88,3.58s7.88,2.93,7.88,7.84c0,6.89-5.86,9.09-11.83,9.09-6.24,0-11.76-2.74-11.79-9.7h7.08Z" transform="translate(-2.53 -2)"/><path class="cls-2" d="M125.13,3.49H128l10.65,27.16h-2.78l-3.31-8.45H120.22l-3.27,8.45h-2.78ZM121,20h10.69L126.46,6.08Z" transform="translate(-2.53 -2)"/><path class="cls-2" d="M141.34,3.49h2.59V30.65h-2.59V3.49Z" transform="translate(-2.53 -2)"/><path class="cls-2" d="M149.6,3.49H159c8.18,0.19,12.48,4.68,12.48,13.58S167.17,30.46,159,30.65h-9.4V3.49Zm2.59,25h5.52c7.8,0,11.19-3.27,11.19-11.38S165.5,5.66,157.7,5.69h-5.52V28.45Z" transform="translate(-2.53 -2)"/><polygon class="cls-1" points="113.47 11 103.47 11 103.47 0 96.47 0 96.47 11 86.47 11 86.47 19 96.47 19 96.47 29 103.47 29 103.47 19 113.47 19 113.47 11"/><path class="cls-2" d="M2.53,36.35H3.24v3.23h0a2,2,0,0,1,1.86-1.17c1.63,0,2.13.85,2.13,2.24v3.74H6.54V40.77c0-1-.33-1.76-1.48-1.76a1.83,1.83,0,0,0-1.82,2v3.39H2.53v-8Z" transform="translate(-2.53 -2)"/><path class="cls-2" d="M9,41.68A2.06,2.06,0,0,0,10.92,44a1.77,1.77,0,0,0,1.82-1.49h0.71a2.37,2.37,0,0,1-2.53,2.08c-1.85,0-2.62-1.42-2.62-3.07s0.78-3.07,2.62-3.07,2.61,1.63,2.56,3.27H9Zm3.76-.6A2,2,0,0,0,10.92,39,2.06,2.06,0,0,0,9,41.08h3.76Z" transform="translate(-2.53 -2)"/><path class="cls-2" d="M14.37,40.36c0.07-1.36,1-1.95,2.35-1.95,1,0,2.14.31,2.14,1.87v3.09a0.38,0.38,0,0,0,.42.43,0.68,0.68,0,0,0,.23,0v0.6a1.93,1.93,0,0,1-.46,0c-0.72,0-.83-0.4-0.83-1h0a2.21,2.21,0,0,1-2.12,1.18,1.7,1.7,0,0,1-1.95-1.7c0-1.63,1.59-1.69,3.12-1.87,0.59-.07.91-0.15,0.91-0.79,0-1-.69-1.19-1.52-1.19a1.35,1.35,0,0,0-1.55,1.35H14.37Zm3.78,0.86h0a0.89,0.89,0,0,1-.6.26c-1.2.21-2.7,0.2-2.7,1.34A1.21,1.21,0,0,0,16.13,44a1.87,1.87,0,0,0,2-1.82V41.22Z" transform="translate(-2.53 -2)"/><path class="cls-2" d="M20.3,36.35H21v8H20.3v-8Z" transform="translate(-2.53 -2)"/><path class="cls-2" d="M22.38,36.35h0.71v1.14H22.38V36.35Zm0,2.23h0.71v5.81H22.38V38.58Z" transform="translate(-2.53 -2)"/><path class="cls-2" d="M24.44,38.58h0.71v1h0A2,2,0,0,1,27,38.41c1.63,0,2.13.85,2.13,2.24v3.74H28.45V40.77c0-1-.33-1.76-1.48-1.76a1.83,1.83,0,0,0-1.82,2v3.39H24.44V38.58Z" transform="translate(-2.53 -2)"/><path class="cls-2" d="M35.42,43.92c0,1.73-.68,2.79-2.58,2.79-1.16,0-2.31-.52-2.41-1.76h0.71a1.53,1.53,0,0,0,1.7,1.16c1.31,0,1.87-.78,1.87-2.2V43.13h0a2,2,0,0,1-1.85,1.19c-1.86,0-2.62-1.33-2.62-3a2.66,2.66,0,0,1,2.62-2.93,2,2,0,0,1,1.85,1.17h0v-1h0.71v5.34Zm-0.71-2.5c0-1.14-.53-2.41-1.87-2.41s-1.91,1.2-1.91,2.41A1.93,1.93,0,1,0,34.71,41.42Z" transform="translate(-2.53 -2)"/><path class="cls-2" d="M39.91,36.35h0.71v8H39.91v-8Z" transform="translate(-2.53 -2)"/><path class="cls-2" d="M42,36.35h0.71v1.14H42V36.35Zm0,2.23h0.71v5.81H42V38.58Z" transform="translate(-2.53 -2)"/><path class="cls-2" d="M43.42,38.58h0.79L46,43.68h0l1.8-5.1h0.73l-2.17,5.81H45.66Z" transform="translate(-2.53 -2)"/><path class="cls-2" d="M49.7,41.68A2.06,2.06,0,0,0,51.62,44a1.77,1.77,0,0,0,1.82-1.49h0.71a2.37,2.37,0,0,1-2.53,2.08c-1.85,0-2.62-1.42-2.62-3.07s0.78-3.07,2.62-3.07,2.61,1.63,2.56,3.27H49.7Zm3.76-.6A2,2,0,0,0,51.62,39a2.06,2.06,0,0,0-1.91,2.07h3.76Z" transform="translate(-2.53 -2)"/><path class="cls-2" d="M58.62,40.28A1.34,1.34,0,0,0,57.1,39a1.17,1.17,0,0,0-1.37,1,1.28,1.28,0,0,0,1.21,1l0.95,0.21a1.7,1.7,0,0,1,1.66,1.61c0,1.26-1.25,1.75-2.33,1.75a2.11,2.11,0,0,1-2.39-2h0.71A1.53,1.53,0,0,0,57.23,44c0.66,0,1.59-.29,1.59-1.1s-0.63-.9-1.27-1.06l-0.91-.2C55.71,41.35,55,41,55,40c0-1.18,1.16-1.63,2.18-1.63a1.9,1.9,0,0,1,2.13,1.87H58.62Z" transform="translate(-2.53 -2)"/><path class="cls-2" d="M68.89,41.49a2.77,2.77,0,1,1-5.5,0A2.77,2.77,0,1,1,68.89,41.49Zm-4.79,0a2.08,2.08,0,1,0,4.08,0A2.08,2.08,0,1,0,64.1,41.49Z" transform="translate(-2.53 -2)"/><path class="cls-2" d="M69.94,38.58h0.71v1h0a2,2,0,0,1,1.86-1.17c1.63,0,2.13.85,2.13,2.24v3.74H74V40.77c0-1-.33-1.76-1.48-1.76a1.83,1.83,0,0,0-1.82,2v3.39H69.94V38.58Z" transform="translate(-2.53 -2)"/><path class="cls-2" d="M76.42,41.68A2.06,2.06,0,0,0,78.33,44a1.77,1.77,0,0,0,1.82-1.49h0.71a2.37,2.37,0,0,1-2.53,2.08c-1.85,0-2.62-1.42-2.62-3.07s0.78-3.07,2.62-3.07,2.61,1.63,2.56,3.27H76.42Zm3.76-.6A2,2,0,0,0,78.33,39a2.06,2.06,0,0,0-1.91,2.07h3.76Z" transform="translate(-2.53 -2)"/><path class="cls-2" d="M90.1,44.39H89.44v-1.1h0a2.3,2.3,0,0,1-2.07,1.27c-1.77,0-2.61-1.43-2.61-3.07s0.84-3.07,2.61-3.07a2.07,2.07,0,0,1,2,1.27h0V36.35H90.1v8ZM87.35,44c1.51,0,2-1.27,2-2.48S88.86,39,87.35,39c-1.35,0-1.9,1.27-1.9,2.48S86,44,87.35,44Z" transform="translate(-2.53 -2)"/><path class="cls-2" d="M96.65,41.49a2.76,2.76,0,1,1-5.5,0A2.76,2.76,0,1,1,96.65,41.49Zm-4.79,0a2.08,2.08,0,1,0,4.08,0A2.08,2.08,0,1,0,91.87,41.49Z" transform="translate(-2.53 -2)"/><path class="cls-2" d="M97.7,38.58h0.71v1h0a2,2,0,0,1,1.86-1.17c1.63,0,2.13.85,2.13,2.24v3.74h-0.71V40.77c0-1-.33-1.76-1.47-1.76a1.83,1.83,0,0,0-1.82,2v3.39H97.7V38.58Z" transform="translate(-2.53 -2)"/><path class="cls-2" d="M103.7,40.36c0.07-1.36,1-1.95,2.35-1.95,1,0,2.14.31,2.14,1.87v3.09a0.38,0.38,0,0,0,.42.43,0.69,0.69,0,0,0,.23,0v0.6a1.94,1.94,0,0,1-.46,0c-0.72,0-.83-0.4-0.83-1h0a2.22,2.22,0,0,1-2.12,1.18,1.7,1.7,0,0,1-1.95-1.7c0-1.63,1.59-1.69,3.12-1.87,0.59-.07.91-0.15,0.91-0.79,0-1-.69-1.19-1.52-1.19a1.35,1.35,0,0,0-1.55,1.35H103.7Zm3.78,0.86h0a0.89,0.89,0,0,1-.6.26c-1.21.21-2.7,0.2-2.7,1.34a1.21,1.21,0,0,0,1.3,1.15,1.87,1.87,0,0,0,2-1.82V41.22Z" transform="translate(-2.53 -2)"/><path class="cls-2" d="M110.74,38.58h1.18v0.6h-1.18V43.1c0,0.46.07,0.73,0.57,0.77a5.36,5.36,0,0,0,.61,0v0.61l-0.63,0A1.06,1.06,0,0,1,110,43.15v-4h-1v-0.6h1V36.84h0.71v1.75Z" transform="translate(-2.53 -2)"/><path class="cls-2" d="M113,36.35h0.71v1.14H113V36.35Zm0,2.23h0.71v5.81H113V38.58Z" transform="translate(-2.53 -2)"/><path class="cls-2" d="M120.24,41.49a2.76,2.76,0,1,1-5.5,0A2.76,2.76,0,1,1,120.24,41.49Zm-4.79,0a2.08,2.08,0,1,0,4.08,0A2.08,2.08,0,1,0,115.45,41.49Z" transform="translate(-2.53 -2)"/><path class="cls-2" d="M121.29,38.58H122v1h0a2,2,0,0,1,1.86-1.17c1.63,0,2.13.85,2.13,2.24v3.74h-0.71V40.77c0-1-.33-1.76-1.47-1.76A1.83,1.83,0,0,0,122,41v3.39h-0.71V38.58Z" transform="translate(-2.53 -2)"/><path class="cls-2" d="M130.41,40.36c0.07-1.36,1-1.95,2.35-1.95,1,0,2.14.31,2.14,1.87v3.09a0.38,0.38,0,0,0,.42.43,0.69,0.69,0,0,0,.23,0v0.6a1.94,1.94,0,0,1-.46,0c-0.72,0-.83-0.4-0.83-1h0a2.22,2.22,0,0,1-2.12,1.18,1.7,1.7,0,0,1-1.95-1.7c0-1.63,1.59-1.69,3.12-1.87,0.59-.07.91-0.15,0.91-0.79,0-1-.69-1.19-1.52-1.19a1.35,1.35,0,0,0-1.55,1.35h-0.71Zm3.78,0.86h0a0.89,0.89,0,0,1-.6.26c-1.21.21-2.7,0.2-2.7,1.34a1.21,1.21,0,0,0,1.3,1.15,1.87,1.87,0,0,0,2-1.82V41.22Z" transform="translate(-2.53 -2)"/><path class="cls-2" d="M137.45,38.58h1.18v0.6h-1.18V43.1c0,0.46.07,0.73,0.57,0.77a5.36,5.36,0,0,0,.61,0v0.61l-0.63,0a1.06,1.06,0,0,1-1.26-1.31v-4h-1v-0.6h1V36.84h0.71v1.75Z" transform="translate(-2.53 -2)"/><path class="cls-2" d="M142.73,40.36c0.07-1.36,1-1.95,2.35-1.95,1,0,2.14.31,2.14,1.87v3.09a0.38,0.38,0,0,0,.42.43,0.69,0.69,0,0,0,.23,0v0.6a1.94,1.94,0,0,1-.46,0c-0.72,0-.83-0.4-0.83-1h0a2.22,2.22,0,0,1-2.12,1.18,1.7,1.7,0,0,1-1.95-1.7c0-1.63,1.59-1.69,3.12-1.87,0.59-.07.91-0.15,0.91-0.79,0-1-.69-1.19-1.52-1.19a1.35,1.35,0,0,0-1.55,1.35h-0.71Zm3.78,0.86h0a0.89,0.89,0,0,1-.6.26c-1.21.21-2.7,0.2-2.7,1.34a1.21,1.21,0,0,0,1.3,1.15,1.87,1.87,0,0,0,2-1.82V41.22Z" transform="translate(-2.53 -2)"/><path class="cls-2" d="M152.9,38.58h1.18v0.6H152.9V43.1c0,0.46.07,0.73,0.57,0.77a5.36,5.36,0,0,0,.61,0v0.61l-0.63,0a1.06,1.06,0,0,1-1.26-1.31v-4h-1v-0.6h1V36.84h0.71v1.75Z" transform="translate(-2.53 -2)"/><path class="cls-2" d="M155.12,36.35h0.71v1.14h-0.71V36.35Zm0,2.23h0.71v5.81h-0.71V38.58Z" transform="translate(-2.53 -2)"/><path class="cls-2" d="M157.2,38.58h0.65v1h0a2,2,0,0,1,1.9-1.15,1.62,1.62,0,0,1,1.67,1.14,2,2,0,0,1,1.85-1.14,1.75,1.75,0,0,1,1.93,2v3.94h-0.71V40.49A1.23,1.23,0,0,0,163.14,39c-1.23,0-1.58,1-1.58,2.1v3.29h-0.71V40.45A1.21,1.21,0,0,0,159.64,39c-1.23,0-1.72.92-1.73,2.14v3.24H157.2V38.58Z" transform="translate(-2.53 -2)"/><path class="cls-2" d="M167,41.68A2.06,2.06,0,0,0,168.91,44a1.77,1.77,0,0,0,1.82-1.49h0.71a2.37,2.37,0,0,1-2.53,2.08c-1.85,0-2.62-1.42-2.62-3.07s0.78-3.07,2.62-3.07,2.61,1.63,2.56,3.27H167Zm3.76-.6A2,2,0,0,0,168.91,39,2.06,2.06,0,0,0,167,41.08h3.76Z" transform="translate(-2.53 -2)"/></svg>