<svg id="Layer_1" data-name="Layer 1" xmlns="http://www.w3.org/2000/svg" viewBox="0 0 269 40"><defs><style>.cls-1{fill:#3b5998;}.cls-2{fill:#8b9dc3;}.cls-3{fill:#fff;}</style></defs><title>sign-up-facebook</title><rect class="cls-1" width="269" height="40" rx="5" ry="5"/><rect class="cls-2" x="43" width="1" height="40"/><path id="f" class="cls-3" d="M39.22,164v-12.8h4.3l0.64-5H39.22v-3.18c0-1.44.4-2.43,2.47-2.43h2.64v-4.46a35.12,35.12,0,0,0-3.85-.2c-3.81,0-6.41,2.32-6.41,6.59v3.68H29.76v5h4.31V164h5.15Z" transform="translate(-15 -130)"/><path class="cls-3" d="M102.78,150.74v0.31c0,1,.29,1.65,1.43,1.65a1.23,1.23,0,0,0,1.29-1.32c0-1-.49-1.33-1.92-1.83-1.92-.66-2.8-1.46-2.8-3.24,0-2.08,1.27-3.15,3.31-3.15S107.4,144,107.4,146v0.3h-2.07c0-1-.35-1.59-1.17-1.59a1.11,1.11,0,0,0-1.23,1.25,1.4,1.4,0,0,0,1.11,1.45l1.66,0.72c1.62,0.71,2,1.53,2,2.83,0,2.26-1.38,3.28-3.72,3.28s-3.4-1.14-3.4-3.12v-0.44h2.16Z" transform="translate(-15 -130)"/><path class="cls-3" d="M109.22,143.25h2.07V145h-2.07v-1.77Zm0,2.76h2.07v8.07h-2.07V146Z" transform="translate(-15 -130)"/><path class="cls-3" d="M119.16,146v7.67c0,2.13-.95,3.16-3.36,3.16-1.75,0-2.75-.78-2.75-2.16h2a0.72,0.72,0,0,0,.31.61,1.22,1.22,0,0,0,.69.23,1.19,1.19,0,0,0,1.14-1.46V153h0a2.18,2.18,0,0,1-1.72,1c-1.65,0-2.48-1.12-2.48-4.08,0-1.89.29-4.11,2.54-4.11a1.8,1.8,0,0,1,1.66,1.11h0V146h2Zm-3.1,6.39c0.87,0,1.13-.95,1.13-2.31,0-2-.25-2.7-1.08-2.7s-1.08.74-1.08,2.91C115,151.41,115.18,152.4,116.05,152.4Z" transform="translate(-15 -130)"/><path class="cls-3" d="M121,146h2V147h0a2.21,2.21,0,0,1,2.06-1.16c1.29,0,2.05.71,2.05,2.29v6H125v-5.56c0-.81-0.27-1.12-0.88-1.12a1.09,1.09,0,0,0-1.1,1.33v5.35H121V146Z" transform="translate(-15 -130)"/><path class="cls-3" d="M137,153.14h0a2.21,2.21,0,0,1-2.05,1.15c-1.29,0-2.06-.71-2.06-2.29v-6h2.07v5.56c0,0.81.27,1.13,0.89,1.13a1.09,1.09,0,0,0,1.09-1.33V146H139v8.07h-2v-0.94Z" transform="translate(-15 -130)"/><path class="cls-3" d="M140.72,146h2v0.85h0a2,2,0,0,1,1.83-1.06c1.69,0,2.48,1.25,2.48,4.25s-0.78,4.24-2.48,4.24a1.94,1.94,0,0,1-1.74-1h0v3.39h-2.07V146Zm3.17,6.69c0.9,0,1.08-.9,1.08-2.65s-0.18-2.66-1.08-2.66-1.1.9-1.1,2.66S143,152.7,143.88,152.7Z" transform="translate(-15 -130)"/><path class="cls-3" d="M152,146H154l0.94,5.73h0l1-5.73h2.25l1.06,5.73h0l1-5.73h2l-1.74,8.07h-2.35l-1.06-5.73h0l-1,5.73h-2.4Z" transform="translate(-15 -130)"/><path class="cls-3" d="M163.57,143.25h2.07V145h-2.07v-1.77Zm0,2.76h2.07v8.07h-2.07V146Z" transform="translate(-15 -130)"/><path class="cls-3" d="M167.92,143.7H170V146h1.2v1.41H170v4.36c0,0.63.13,0.88,0.73,0.88a4.24,4.24,0,0,0,.46,0v1.44a13,13,0,0,1-1.35.09c-1.62,0-1.92-.49-1.92-2.13v-4.62h-1.05V146h1.05V143.7Z" transform="translate(-15 -130)"/><path class="cls-3" d="M172.29,143.37h2.07v3.46h0a2.12,2.12,0,0,1,2-1c1.29,0,2.05.71,2.05,2.29v6h-2.07v-5.56c0-.81-0.27-1.12-0.88-1.12a1.09,1.09,0,0,0-1.1,1.33v5.35h-2.07V143.37Z" transform="translate(-15 -130)"/><path class="cls-3" d="M184.2,143.37h6v1.77h-3.83v2.52H190v1.77h-3.6v4.65H184.2V143.37Z" transform="translate(-15 -130)"/><path class="cls-3" d="M191.14,148.49v-0.19c0-1.86,1.27-2.49,2.83-2.49,2.46,0,2.92,1,2.92,2.48v4.24a3.29,3.29,0,0,0,.26,1.56h-2a3.38,3.38,0,0,1-.26-0.84h0a2,2,0,0,1-2.05,1,2,2,0,0,1-2-2.31c0-1.51.62-2.13,2-2.52l1.17-.31a0.87,0.87,0,0,0,.82-0.95,0.86,0.86,0,0,0-1-1,0.92,0.92,0,0,0-1,1v0.23h-1.86Zm3.78,1.56a2.56,2.56,0,0,1-.88.4,1.22,1.22,0,0,0-1.17,1.31,0.92,0.92,0,0,0,.78,1.12,1.22,1.22,0,0,0,1.27-1.24V150Z" transform="translate(-15 -130)"/><path class="cls-3" d="M202.63,148.92c0-.78-0.15-1.62-0.93-1.62-1,0-1.19.9-1.19,2.76s0.18,2.82,1.11,2.82c0.69,0,1-.58,1-1.89h2c0,2.11-.88,3.3-3.07,3.3s-3.09-1-3.09-4.24,1.36-4.25,3.27-4.25,2.9,1.21,2.9,3.12h-2Z" transform="translate(-15 -130)"/><path class="cls-3" d="M207.84,150.36V151c0,0.94.25,1.87,1,1.87s1-.52,1.09-1.51h1.86c-0.07,1.88-1,2.92-2.92,2.92-3,0-3.12-2.31-3.12-4.32s0.42-4.17,3.21-4.17c2.42,0,3,1.62,3,4.09v0.47h-4.09Zm2.11-1.23c0-1.23-.19-1.92-1-1.92s-1.06.85-1.06,1.6v0.31H210Z" transform="translate(-15 -130)"/><path class="cls-3" d="M213.39,143.37h2.07v3.39h0a1.94,1.94,0,0,1,1.74-1c1.7,0,2.47,1.25,2.47,4.25s-0.78,4.24-2.47,4.24a2,2,0,0,1-1.83-1.06h0v0.85h-2V143.37Zm3.17,9.33c0.9,0,1.08-.9,1.08-2.65s-0.18-2.66-1.08-2.66-1.09.9-1.09,2.66S215.64,152.7,216.55,152.7Z" transform="translate(-15 -130)"/><path class="cls-3" d="M224.17,145.8c2.49,0,3.18,1.44,3.18,4.25s-0.81,4.24-3.18,4.24S221,152.85,221,150,221.8,145.8,224.17,145.8Zm0,7.08c0.84,0,1.11-.82,1.11-2.83s-0.27-2.83-1.11-2.83c-1,0-1.11,1.19-1.11,2.83S223.15,152.88,224.17,152.88Z" transform="translate(-15 -130)"/><path class="cls-3" d="M231.75,145.8c2.49,0,3.18,1.44,3.18,4.25s-0.81,4.24-3.18,4.24-3.18-1.44-3.18-4.24S229.38,145.8,231.75,145.8Zm0,7.08c0.84,0,1.11-.82,1.11-2.83s-0.27-2.83-1.11-2.83c-1,0-1.11,1.19-1.11,2.83S230.73,152.88,231.75,152.88Z" transform="translate(-15 -130)"/><path class="cls-3" d="M238.56,143.37V149h0l2.08-3H243l-2.32,3.18,2.67,4.89H241l-1.72-3.31-0.74,1v2.35h-2.07V143.37h2.07Z" transform="translate(-15 -130)"/></svg>