<svg id="Layer_1" data-name="Layer 1" xmlns="http://www.w3.org/2000/svg" viewBox="0 0 293.06 293.22"><defs><style>.cls-1{fill:#009245;}</style></defs><title>stats</title><path class="cls-1" d="M237.89,33h0c-24.65-18-55.31-29.55-88.5-29.55C75,3.45,13.27,59.08,3.48,130.84c0,0,0,.16,0,0.16h44.9c10-47,51.09-82.61,100.76-82.61a102.6,102.6,0,0,1,56,16.45l33-31.76A0.34,0.34,0,0,0,237.89,33Zm28.48,28.25L233.78,92.69a101.71,101.71,0,0,1,17.91,58.08C251.69,200.45,216,242,169,251.3v45.36c72-9.78,127.44-71.58,127.44-146A146.67,146.67,0,0,0,266.36,61.25ZM48.38,171h-45C12.38,236,64,287.77,129,296.67V251.3C89,243.27,56.38,211,48.38,171Z" transform="translate(-3.38 -3.45)"/><path class="cls-1" d="M98,128.09c-10.49,0-19,3.18-19,7.1V208.9c0,3.92,8.51,7.1,19,7.1s19-3.18,19-7.1V135.19C117,131.27,108.49,128.09,98,128.09Z" transform="translate(-3.38 -3.45)"/><path class="cls-1" d="M149,85.55c-10.49,0-19,3.18-19,7.1V208.9c0,3.92,8.51,7.1,19,7.1s19-3.18,19-7.1V92.65C168,88.73,159.49,85.55,149,85.55Z" transform="translate(-3.38 -3.45)"/><path class="cls-1" d="M200,106.8c-10.49,0-19,3.18-19,7.1v95c0,3.92,8.51,7.1,19,7.1s19-3.18,19-7.1v-95C219,110,210.49,106.8,200,106.8Z" transform="translate(-3.38 -3.45)"/></svg>